<svg width="124" height="124" xmlns="http://www.w3.org/2000/svg" data-name="Layer 1">

 <title>tailwind-css</title>
 <g>
  <title>Layer 1</title>
  <path id="svg_1" fill-rule="evenodd" fill="#06b6d4" d="m61.44,25q-24.57,0 -30.72,24.43q9.22,-12.21 21.5,-9.16c4.68,1.16 8,4.53 11.72,8.26c6,6.08 13,13.11 28.22,13.11q24.57,0 30.72,-24.43q-9.21,12.22 -21.5,9.16c-4.68,-1.16 -8,-4.53 -11.72,-8.26c-6.02,-6.11 -12.99,-13.11 -28.22,-13.11zm-30.72,36.64q-24.57,0 -30.72,24.43q9.23,-12.21 21.5,-9.16c4.68,1.16 8,4.53 11.72,8.27c6,6.07 13,13.11 28.22,13.11q24.57,0 30.72,-24.43q-9.21,12.21 -21.5,9.14c-4.68,-1.16 -8,-4.53 -11.72,-8.26c-6,-6.08 -13,-13.12 -28.22,-13.12l0,0.02z" class="cls-1"/>
 </g>
</svg>