<?xml version="1.0" encoding="UTF-8" standalone="no"?>
<svg
   version="1.2"
   viewBox="0 0 350 359"
   width="350"
   height="359"
   id="svg27"
   sodipodi:docname="Logo1.svg"
   inkscape:version="1.1.2 (b8e25be833, 2022-02-05)"
   xmlns:inkscape="http://www.inkscape.org/namespaces/inkscape"
   xmlns:sodipodi="http://sodipodi.sourceforge.net/DTD/sodipodi-0.dtd"
   xmlns="http://www.w3.org/2000/svg"
   xmlns:svg="http://www.w3.org/2000/svg">
  <defs
     id="defs31" />
  <sodipodi:namedview
     id="namedview29"
     pagecolor="#ffffff"
     bordercolor="#666666"
     borderopacity="1.0"
     inkscape:pageshadow="2"
     inkscape:pageopacity="0.0"
     inkscape:pagecheckerboard="0"
     showgrid="false"
     inkscape:zoom="2.2284123"
     inkscape:cx="168.50562"
     inkscape:cy="179.5"
     inkscape:window-width="1920"
     inkscape:window-height="1009"
     inkscape:window-x="-8"
     inkscape:window-y="-8"
     inkscape:window-maximized="1"
     inkscape:current-layer="svg27" />
  <style
     id="style21">.a{fill:#102694}.b{fill:#1e78c2}</style>
  <path
     class="a"
     d="m151.4 261l19.5-19.5q0.2 5.1 0.5 10.2 3.7 59.6 10.9 95.5 0.8 4.5-1.9 7.7-2.7 3.2-6.9 3.2-6.9 0-9.9-7.4-7.6-29.5-12.2-89.7z"
     id="path23"
     style="fill:#1e78cf;fill-opacity:1" />
  <path
     fill-rule="evenodd"
     class="b"
     d="m349.8 4.5q-1.4 5.6-7 10.2-17.5 13.6-62.8 16.3-45.3 2.8-102.1-6 0.2 1.9-0.2 3.9-7.4 40.8-8.6 102-1 47.2 0.9 93.4l-19.7 19.8q-0.4-6-0.8-12.3-1.4-6.1-10.4-31.4-9-25.3-25.7-56.7-10.9-20.5-26.9-40.6-16-20.1-36.7-33.4-20.7-13.4-46.3-14-1.9 0-2.8-1.6-0.6-1.2-0.3-2.4 0.3-1.2 1.4-1.8 0.9-0.8 14.3-7.7 13.4-6.8 36.3-14.9 20.8-7.4 49.7-11.8 28.8-4.4 60.7 0.5 2.3-1.1 4.9-1.1 4.5 0 7.2 3.1 52.8 8.7 98.7 7 48.7-2.4 65.3-15.2 3.8-3.1 4.7-6.8 1-2.3 3.2-2.3 1.4 0 2.3 1.2 1 1.1 0.7 2.6zm-214.5 136.1c0 1.6-1 2.8-2.3 3.3l15.1 58.8q-1.8-46.5-0.7-89.3l-13.7 24.4c1 0.6 1.6 1.7 1.6 2.8zm14.1-68.2l-32.4-6.4c-0.4 1.4-1.5 2.6-2.8 3.2l17.1 68q0.2-0.1 0.4-0.1 0.3 0 0.6 0.1l15.2-27.1q0.2-5.6 0.4-11.1 0.5-14.3 1.5-26.6zm0.2-1.6q2.6-30.3 8.1-48.7l-41.5 39.4c0.6 0.8 1 1.9 1 2.9zm-48.4-48.7q-23 3.7-40.8 9.3l48.1 29.7c0.9-1 2.2-1.6 3.6-1.6 0.9 0 1.6 0.2 2.3 0.5l40.9-38.8q-28.4-3.3-54.1 0.9zm-86.3 27.9l92.6 12.4q0.1 0 0.1-0.1l-49.1-30.2q-2 0.6-3.9 1.3-26.3 9.3-39.7 16.6zm94.6 74.4l1.3-54.9c-2.1-0.5-3.7-2.5-3.7-4.7l-72.9-9.8q19.5 7 37.6 23.3 20 17.9 37.7 46.1zm33.2 67.7l-12.1-48.1c-1.4-0.5-2.4-1.8-2.4-3.3 0-0.9 0.4-1.8 1-2.4l-16.8-66.8-1.4 55.3q4.1 6.7 8.1 13.9 10.1 18.6 17.4 36 3.4 8.1 6.2 15.4z"
     id="path25"
     style="fill:#1e78cf;fill-opacity:1" />
</svg>
